<mxfile host="app.diagrams.net" agent="Mozilla/5.0 (Windows NT 10.0; Win64; x64) AppleWebKit/537.36 (KHTML, like Gecko) Chrome/138.0.0.0 Safari/537.36 Edg/138.0.0.0" version="28.1.0">
  <diagram name="Page-1" id="dl4RVzg2kFL4uNjMC_r9">
    <mxGraphModel dx="1034" dy="570" grid="1" gridSize="10" guides="1" tooltips="1" connect="1" arrows="1" fold="1" page="1" pageScale="1" pageWidth="850" pageHeight="1100" math="0" shadow="0">
      <root>
        <mxCell id="0" />
        <mxCell id="1" parent="0" />
        <mxCell id="zTioTyktVtiZUpSan5QN-1" value="Core Concepts of IAM&amp;nbsp;&lt;div&gt;&lt;br&gt;&lt;/div&gt;&lt;div&gt;1. Users&lt;/div&gt;&lt;div&gt;&lt;ul&gt;&lt;li&gt;Individual identities with credentials (username + password or access keys).&lt;/li&gt;&lt;li&gt;Used for people or applications that interact with AWS.&lt;/li&gt;&lt;li&gt;Each user can have:&lt;/li&gt;&lt;ul&gt;&lt;li&gt;Console access (web login)&lt;/li&gt;&lt;li&gt;Programmatic access (using access keys)&lt;/li&gt;&lt;/ul&gt;&lt;/ul&gt;&lt;div&gt;2. Groups&amp;nbsp;&lt;/div&gt;&lt;/div&gt;&lt;div&gt;&lt;ul&gt;&lt;li&gt;Collections of users with common permissions.&lt;/li&gt;&lt;li&gt;Policies are attached to groups, and all users in that group inherit the permissions.&lt;/li&gt;&lt;li&gt;Example: A &quot;Developers&quot; group may have EC2 and S3 access.&lt;/li&gt;&lt;/ul&gt;&lt;div&gt;3. Roles&lt;/div&gt;&lt;/div&gt;&lt;div&gt;&lt;ul&gt;&lt;li&gt;Identities with specific permissions that can be assumed by users, services, or applications.&lt;/li&gt;&lt;li&gt;No credentials; temporary security credentials are issued when the role is assumed.&lt;/li&gt;&lt;li&gt;Common use cases:&lt;/li&gt;&lt;ul&gt;&lt;li&gt;EC2 instance accessing S3 (via instance profile)&lt;/li&gt;&lt;li&gt;Cross-account access&lt;/li&gt;&lt;li&gt;Federated identity access&lt;/li&gt;&lt;/ul&gt;&lt;/ul&gt;&lt;div&gt;4. Policies&lt;/div&gt;&lt;/div&gt;&lt;div&gt;&lt;ul&gt;&lt;li&gt;JSON documents that define permissions.&lt;/li&gt;&lt;li&gt;Types of policies:&lt;/li&gt;&lt;ul&gt;&lt;li&gt;Managed Policies:&lt;/li&gt;&lt;ul&gt;&lt;li&gt;AWS-managed (predefined by AWS)&lt;/li&gt;&lt;li&gt;Customer-managed (created by you)&lt;/li&gt;&lt;/ul&gt;&lt;li&gt;Inline Policies&lt;/li&gt;&lt;ul&gt;&lt;li&gt;Attached directly to a single user, group, or role (less reusable)&lt;/li&gt;&lt;/ul&gt;&lt;/ul&gt;&lt;/ul&gt;&lt;div&gt;Policy Structure&amp;nbsp;&lt;/div&gt;&lt;/div&gt;&lt;div&gt;A basic IAM policy has the following elements:&lt;/div&gt;&lt;div&gt;&lt;br&gt;&lt;/div&gt;&lt;div&gt;&lt;div&gt;{&lt;/div&gt;&lt;div&gt;&amp;nbsp; &quot;Version&quot;: &quot;2012-10-17&quot;,&lt;/div&gt;&lt;div&gt;&amp;nbsp; &quot;Statement&quot;: [{&lt;/div&gt;&lt;div&gt;&amp;nbsp; &amp;nbsp; &quot;Effect&quot;: &quot;Allow&quot; | &quot;Deny&quot;,&lt;/div&gt;&lt;div&gt;&amp;nbsp; &amp;nbsp; &quot;Action&quot;: &quot;service:operation&quot;,&lt;/div&gt;&lt;div&gt;&amp;nbsp; &amp;nbsp; &quot;Resource&quot;: &quot;arn:aws:service:region:account-id:resource&quot;&lt;/div&gt;&lt;div&gt;&amp;nbsp; }]&lt;/div&gt;&lt;div&gt;}&lt;/div&gt;&lt;/div&gt;&lt;div&gt;&lt;br&gt;&lt;/div&gt;&lt;div&gt;&lt;ul&gt;&lt;li&gt;Effect: Allow or Deny&lt;/li&gt;&lt;li&gt;Action: What action(s) are being allowed/denied (e.g., s3:PutObject)&lt;/li&gt;&lt;li&gt;Resource: What resource the actions apply to&amp;nbsp;&lt;/li&gt;&lt;li&gt;&lt;b&gt;Optional: Condition (for fine-grained control)&lt;/b&gt;&lt;/li&gt;&lt;/ul&gt;&lt;/div&gt;&lt;div&gt;&lt;br&gt;&lt;/div&gt;" style="text;html=1;align=left;verticalAlign=middle;whiteSpace=wrap;rounded=0;fontSize=14;" vertex="1" parent="1">
          <mxGeometry x="80" y="40" width="720" height="880" as="geometry" />
        </mxCell>
        <mxCell id="zTioTyktVtiZUpSan5QN-4" value="" style="edgeStyle=orthogonalEdgeStyle;rounded=0;orthogonalLoop=1;jettySize=auto;html=1;" edge="1" parent="1" source="zTioTyktVtiZUpSan5QN-2" target="zTioTyktVtiZUpSan5QN-3">
          <mxGeometry relative="1" as="geometry" />
        </mxCell>
        <mxCell id="zTioTyktVtiZUpSan5QN-2" value="&lt;font style=&quot;font-size: 14px;&quot;&gt;&lt;b&gt;Authentication vs Authorization&lt;/b&gt;&lt;/font&gt;&lt;div&gt;&lt;ul&gt;&lt;li&gt;&lt;font style=&quot;font-size: 14px;&quot;&gt;Authentication: Who you are (user/role)&lt;/font&gt;&lt;/li&gt;&lt;li&gt;&lt;font style=&quot;font-size: 14px;&quot;&gt;Authorization: What you&#39;re allowed to do (permissions from policies)&lt;/font&gt;&lt;/li&gt;&lt;/ul&gt;&lt;div&gt;&lt;span style=&quot;font-size: 14px;&quot;&gt;Key IAM Features&lt;/span&gt;&lt;/div&gt;&lt;/div&gt;&lt;div&gt;&lt;span style=&quot;font-size: 14px;&quot;&gt;&lt;br&gt;&lt;/span&gt;&lt;/div&gt;&lt;div&gt;&lt;span style=&quot;font-size: 14px;&quot;&gt;1. Fine-Grained Permissions&lt;/span&gt;&lt;/div&gt;&lt;div&gt;&lt;ul&gt;&lt;li&gt;&lt;span style=&quot;font-size: 14px;&quot;&gt;Restrict access to specific actions and resources.&lt;/span&gt;&lt;/li&gt;&lt;li&gt;&lt;span style=&quot;font-size: 14px;&quot;&gt;Example: Allow a user to list but not delete S3 buckets.&lt;/span&gt;&lt;/li&gt;&lt;/ul&gt;&lt;div&gt;&lt;span style=&quot;font-size: 14px;&quot;&gt;2. Least Priviledge Principle&lt;/span&gt;&lt;/div&gt;&lt;/div&gt;&lt;div&gt;&lt;ul&gt;&lt;li&gt;&lt;span style=&quot;font-size: 14px;&quot;&gt;Grant the minimum permissions required to perform a task.&lt;/span&gt;&lt;/li&gt;&lt;li&gt;&lt;span style=&quot;font-size: 14px;&quot;&gt;Avoid giving *:* (full access) unless absolutely necessary.&lt;/span&gt;&lt;/li&gt;&lt;/ul&gt;&lt;div&gt;&lt;span style=&quot;font-size: 14px;&quot;&gt;3. Temporary Credentials&lt;/span&gt;&lt;/div&gt;&lt;/div&gt;&lt;div&gt;&lt;ul&gt;&lt;li&gt;&lt;span style=&quot;font-size: 14px;&quot;&gt;Used with IAM roles and services like AWS STS.&lt;/span&gt;&lt;/li&gt;&lt;li&gt;&lt;span style=&quot;font-size: 14px;&quot;&gt;Enhances security by reducing risk from long-term credentials.&lt;/span&gt;&lt;/li&gt;&lt;/ul&gt;&lt;div&gt;&lt;span style=&quot;font-size: 14px;&quot;&gt;4. Multi-Factor Authentication (MFA)&lt;/span&gt;&lt;/div&gt;&lt;/div&gt;&lt;div&gt;&lt;ul&gt;&lt;li&gt;&lt;span style=&quot;font-size: 14px;&quot;&gt;Adds an extra layer of security.&lt;/span&gt;&lt;/li&gt;&lt;li&gt;&lt;span style=&quot;font-size: 14px;&quot;&gt;Strongly recommended for root user and sensitive accounts.&lt;/span&gt;&lt;/li&gt;&lt;/ul&gt;&lt;div&gt;&lt;span style=&quot;font-size: 14px;&quot;&gt;5. IAM Best Practices&lt;/span&gt;&lt;/div&gt;&lt;/div&gt;&lt;div&gt;&lt;ul&gt;&lt;li&gt;&lt;span style=&quot;font-size: 14px;&quot;&gt;Never use the root user for daily tasks.&lt;/span&gt;&lt;/li&gt;&lt;li&gt;&lt;span style=&quot;font-size: 14px;&quot;&gt;Use roles instead of access keys when possible.&lt;/span&gt;&lt;/li&gt;&lt;li&gt;&lt;span style=&quot;font-size: 14px;&quot;&gt;Regularly rotate credentials.&lt;/span&gt;&lt;/li&gt;&lt;li&gt;&lt;span style=&quot;font-size: 14px;&quot;&gt;Enable MFA&lt;/span&gt;&lt;/li&gt;&lt;li&gt;&lt;span style=&quot;font-size: 14px;&quot;&gt;Use resource-level permissions and conditions.&lt;/span&gt;&lt;/li&gt;&lt;/ul&gt;&lt;/div&gt;&lt;div&gt;&lt;span style=&quot;font-size: 14px;&quot;&gt;&lt;br&gt;&lt;/span&gt;&lt;/div&gt;" style="text;html=1;align=left;verticalAlign=middle;whiteSpace=wrap;rounded=0;" vertex="1" parent="1">
          <mxGeometry x="80" y="960" width="720" height="550" as="geometry" />
        </mxCell>
        <mxCell id="zTioTyktVtiZUpSan5QN-3" value="&lt;font style=&quot;font-size: 14px;&quot;&gt;&lt;b&gt;Advanced Concepts&lt;/b&gt;&lt;/font&gt;&lt;div&gt;&lt;font style=&quot;font-size: 14px;&quot;&gt;&lt;br&gt;&lt;/font&gt;&lt;/div&gt;&lt;div&gt;&lt;font style=&quot;font-size: 14px;&quot;&gt;1. Service Control Policies (SCPs)&lt;/font&gt;&lt;/div&gt;&lt;div&gt;&lt;ul&gt;&lt;li&gt;&lt;font style=&quot;font-size: 14px;&quot;&gt;Used with AWS Organizations to set permission boundaries across accounts.&lt;/font&gt;&lt;/li&gt;&lt;li&gt;&lt;font style=&quot;font-size: 14px;&quot;&gt;Prevent accounts from performing restricted actions, even if IAM allows it.&lt;/font&gt;&lt;/li&gt;&lt;/ul&gt;&lt;div&gt;&lt;span style=&quot;font-size: 14px;&quot;&gt;2. Permission Boundaries&lt;/span&gt;&lt;/div&gt;&lt;/div&gt;&lt;div&gt;&lt;ul&gt;&lt;li&gt;&lt;span style=&quot;font-size: 14px;&quot;&gt;Set a boundary to limit the maximum permissions an IAM entity can have.&lt;/span&gt;&lt;/li&gt;&lt;li&gt;&lt;span style=&quot;font-size: 14px;&quot;&gt;Useful in delegating IAM permissions.&lt;/span&gt;&lt;/li&gt;&lt;/ul&gt;&lt;div&gt;&lt;span style=&quot;font-size: 14px;&quot;&gt;3. Access Analyzer&lt;/span&gt;&lt;/div&gt;&lt;/div&gt;&lt;div&gt;&lt;ul&gt;&lt;li&gt;&lt;span style=&quot;font-size: 14px;&quot;&gt;Tool to help you identify resources that are shared publicly or across accounts.&lt;/span&gt;&lt;/li&gt;&lt;/ul&gt;&lt;div&gt;&lt;span style=&quot;font-size: 14px;&quot;&gt;4. IAM Roles for Service Accounts (IRSA)&lt;/span&gt;&lt;/div&gt;&lt;/div&gt;&lt;div&gt;&lt;ul&gt;&lt;li&gt;&lt;span style=&quot;font-size: 14px;&quot;&gt;Used with EKS (Kubernetes) to assign IAM roles to pods.&lt;/span&gt;&lt;/li&gt;&lt;/ul&gt;&lt;/div&gt;" style="text;html=1;align=left;verticalAlign=middle;whiteSpace=wrap;rounded=0;" vertex="1" parent="1">
          <mxGeometry x="80" y="1520" width="720" height="320" as="geometry" />
        </mxCell>
      </root>
    </mxGraphModel>
  </diagram>
</mxfile>
